<svg width="40" height="40" viewBox="0 0 40 40" fill="none" xmlns="http://www.w3.org/2000/svg">
<rect y="6" width="40" height="28" rx="4" fill="black"/>
<path d="M35.1175 21.1834C35.001 21.1838 34.8858 21.2073 34.7784 21.2524C34.671 21.2976 34.5735 21.3635 34.4915 21.4464C34.4096 21.5294 34.3447 21.6277 34.3007 21.7358C34.2567 21.8439 34.2344 21.9596 34.235 22.0763C34.2344 22.1931 34.2567 22.3088 34.3007 22.4169C34.3447 22.525 34.4096 22.6233 34.4915 22.7063C34.5735 22.7892 34.671 22.8551 34.7784 22.9003C34.8858 22.9454 35.001 22.9689 35.1175 22.9693C35.6043 22.9693 36 22.5693 36 22.0763C36.0006 21.9596 35.9783 21.8439 35.9343 21.7358C35.8903 21.6277 35.8254 21.5294 35.7435 21.4464C35.6615 21.3635 35.564 21.2976 35.4566 21.2524C35.3492 21.2073 35.234 21.1838 35.1175 21.1834ZM32.2135 20.4938C32.2135 19.8183 31.6431 19.2714 30.9394 19.2714C30.2358 19.2714 29.6654 19.8191 29.6654 20.4938C29.6654 21.1685 30.2366 21.7154 30.9403 21.7154C31.6439 21.7154 32.2135 21.1685 32.2135 20.4938ZM32.2184 18.1178H33.6241V22.8689H32.2184V22.5651C31.8086 22.8487 31.3223 23.0004 30.8244 23C29.4559 23 28.3466 21.878 28.3466 20.4938C28.3466 19.1095 29.4559 17.9876 30.8244 17.9876C31.3418 17.9876 31.8211 18.1477 32.2184 18.4224V18.1178ZM20.9665 18.7369V18.1187H19.5269V22.8689H20.9698V20.6506C20.9698 19.9021 21.7711 19.5004 22.3274 19.5004H22.344V18.1187C21.7728 18.1187 21.2488 18.366 20.9665 18.7369ZM17.3803 20.4938C17.3803 19.8183 16.8099 19.2714 16.1063 19.2714C15.4026 19.2714 14.8322 19.8191 14.8322 20.4938C14.8322 21.1685 15.4034 21.7154 16.1071 21.7154C16.8107 21.7154 17.3803 21.1685 17.3803 20.4938ZM17.3853 18.1178H18.7918V22.8689H17.3853V22.5651C16.9879 22.839 16.5086 23 15.9912 23C14.6228 23 13.5135 21.878 13.5135 20.4938C13.5135 19.1095 14.6228 17.9876 15.9912 17.9876C16.5086 17.9876 16.9879 18.1477 17.3853 18.4224V18.1178ZM25.8482 17.9909C25.287 17.9909 24.7555 18.1668 24.3995 18.6531V18.1187H22.9996V22.8689H24.4169V20.3726C24.4169 19.6506 24.8954 19.2963 25.4724 19.2963C26.09 19.2963 26.4459 19.6697 26.4459 20.3627V22.8689H27.8499V19.8481C27.8499 18.7427 26.9807 17.9909 25.8482 17.9909ZM11.4654 22.8689H12.9373V16.0017H11.4654V22.8689ZM5 22.8705H6.55882V16H5.00083L5 22.8705ZM10.4521 16C10.4521 17.4871 9.87927 18.8714 8.85772 19.8996L11.0117 22.8705H9.08703L6.74673 19.6423L7.35105 19.1842C7.84302 18.8133 8.24162 18.3322 8.51501 17.7793C8.78841 17.2264 8.92901 16.6171 8.9256 16H10.4505H10.4521Z" fill="white"/>
</svg>
